<svg xmlns="http://www.w3.org/2000/svg" viewBox="0 0 638.54 140.00" fill="none">
  <!-- UnicornApps horizontal lockup. Mark #635BFF. Wordmark: Inter 600 (opsz18), outlined. -->
  <g transform="translate(-4.485,5.052) scale(0.25773)">
    <g stroke="#635BFF" stroke-width="22" stroke-linecap="butt" fill="none">
      <path d="M106 185 V285 A150 150 0 0 0 406 285 V185"/>
      <path d="M150 185 V285 A106 106 0 0 0 362 285 V185"/>
    </g>
    <path fill="#635BFF" fill-rule="evenodd" d="M256 64 C262 132 306 186 331 192 C318 222 286 268 256 268 C226 268 194 222 181 192 C206 186 250 132 256 64 Z M256 144 L264 200 L256 244 L248 200 Z"/>
  </g>
  <path transform="translate(137.990,94.000) scale(0.037584,-0.037584)" fill="#635BFF" d="M746.6044970676303 -22.320083007216454Q564.7920169626152 -22.320083007216454 428.7719101729232 46.21993815153837Q292.75180338323116 114.7599593102932 217.7719270810485 236.35203680097487Q142.7920507788658 357.94411429165655 142.7920507788658 516.8173502609134V1490.0H408.40661783516407V538.5148421227932Q408.40661783516407 444.6403833929531 450.03797444328666 371.72132735718446Q491.66933105140924 298.8022713214159 567.5088984576719 256.9909004718065Q643.3484658639346 215.17952962219715 746.690213969137 215.17952962219715Q850.3119482398033 215.17952962219715 925.986159313387 257.0020219994277Q1001.6603703869707 298.8245143766582 1043.0135746783676 371.6871774358243Q1084.3667789697647 444.54984049499035 1084.3667789697647 538.5148421227932V1490.0H1349.981346026063V516.8472807517563Q1349.981346026063 357.857597656548 1274.8890162078974 236.26821287159646Q1199.796686389732 114.67882808664488 1064.1668138498578 46.179372539714215Q928.5369413099837 -22.320083007216454 746.6044970676303 -22.320083007216454ZM1883.3439306616783 642.0447200536728V0.0H1625.0094791650772V1104.2218017578125H1871.8908675089478L1874.628541663289 829.5554728209972H1847.837097980082Q1895.1795092746615 973.6491162106395 1986.755175370723 1046.762144368142Q2078.3308414667845 1119.8751725256443 2215.245981439948 1119.8751725256443Q2329.4725154563785 1119.8751725256443 2415.11917520687 1070.9552795402706Q2500.765834957361 1022.0353865548968 2548.5169832333922 928.2265218086541Q2596.2681315094233 834.4176570624113 2596.2681315094233 699.3595979809761V0.0H2337.933680012822V659.4673030599952Q2337.933680012822 772.8058178722858 2280.2177628576756 835.7683907076716Q2222.501845702529 898.7309635430574 2120.376781411469 898.7309635430574Q2052.1230151355267 898.7309635430574 1998.444839272648 869.2796838395298Q1944.7666634097695 839.8284041360021 1914.055297035724 782.7191170267761Q1883.3439306616783 725.6098299175501 1883.3439306616783 642.0447200536728ZM2860.009479165077 0.0V1104.2218017578125H3118.3439306616783V0.0ZM2989.314504392445 1262.1341341212392Q2926.6216577142477 1262.1341341212392 2882.3686560057104 1303.8769413893529Q2838.115654297173 1345.6197486574663 2838.115654297173 1404.7476718332728Q2838.115654297173 1464.821624353528 2882.3686560057104 1506.0902311243117Q2926.6216577142477 1547.3588378950953 2989.2109413614985 1547.3588378950953Q3052.402282943683 1547.3588378950953 3096.7067111310153 1506.1288009834077Q3141.011139318347 1464.89876407172 3141.011139318347 1404.6587402398388Q3141.011139318347 1345.5291178449988 3096.692601352989 1303.831625983119Q3052.3740633876314 1262.1341341212392 2989.314504392445 1262.1341341212392ZM3863.065908201039 -22.880055338144302Q3702.1597159802914 -22.880055338144302 3583.028852943331 48.80659545958042Q3463.8979899063706 120.49324625730515 3398.4736319966614 249.05987874418497Q3333.049274086952 377.6265112310648 3333.049274086952 547.5019889324903Q3333.049274086952 719.013050943613 3398.4736319966614 847.9708056636155Q3463.8979899063706 976.9285603836179 3583.028852943331 1048.6863260902464Q3702.1597159802914 1120.444091796875 3863.065908201039 1120.444091796875Q3957.9454638659954 1120.444091796875 4038.78517293185 1094.9997326657176Q4119.6248819977045 1069.5553735345602 4182.742504067719 1022.393314614892Q4245.8601261377335 975.2312556952238 4287.286776527762 908.340384926647Q4328.713426917791 841.4495141580701 4344.846864417195 758.3342618793249L4100.3919759094715 718.5435660779476Q4090.9385888651013 761.7524780258536 4070.6651082336903 796.8392085768282Q4050.391627602279 831.9259391278028 4020.653629962355 857.2104524746537Q3990.9156323224306 882.4949658215046 3951.9353466778994 896.04835530743Q3912.955061033368 909.6017447933555 3865.385818682611 909.6017447933555Q3776.4739420562983 909.6017447933555 3716.5445723459125 862.7213948592544Q3656.6152026355267 815.8410449251533 3626.1683142073452 734.3516902700067Q3595.721425779164 652.8623356148601 3595.721425779164 548.0619612634182Q3595.721425779164 444.75937174260616 3626.1683142073452 363.34115356206894Q3656.6152026355267 281.9229353815317 3716.513457030058 234.94261352345347Q3776.411711424589 187.96229166537523 3865.385818682611 187.96229166537523Q3913.452845863998 187.96229166537523 3952.7886865213513 201.80233642458916Q3992.1245271787047 215.64238118380308 4022.2158430963755 241.56467244401574Q4052.307159014046 267.4869637042284 4072.5806396454573 304.14035725966096Q4092.8541202768683 340.7937508150935 4102.454210609198 385.50044759362936L4346.838003739715 345.989737957716Q4331.522347815335 261.32341715693474 4289.966803789139 193.61477579921484Q4248.411259762943 125.90613444149494 4185.073623858392 77.31740560010076Q4121.735987953842 28.72867675870657 4040.1385021954775 2.9243107102811337Q3958.5410164371133 -22.880055338144302 3863.065908201039 -22.880055338144302ZM5040.305884599686 -22.880055338144302Q4879.239694006741 -22.880055338144302 4759.728840328753 48.68659668043256Q4640.217986650765 120.25324869900942 4574.633630368859 248.77988159283996Q4509.049274086952 377.3065144866705 4509.049274086952 547.5019889324903Q4509.049274086952 719.3330476880074 4574.633630368859 848.2108032219112Q4640.217986650765 977.088558755815 4759.728840328753 1048.766325276345Q4879.239694006741 1120.444091796875 5040.305884599686 1120.444091796875Q5202.092089027166 1120.444091796875 5321.460734453052 1048.766325276345Q5440.829379878938 977.088558755815 5506.413736160845 848.2108032219112Q5571.998092442751 719.3330476880074 5571.998092442751 547.5019889324903Q5571.998092442751 377.3065144866705 5506.413736160845 248.77988159283996Q5440.829379878938 120.25324869900942 5321.460734453052 48.68659668043256Q5202.092089027166 -22.880055338144302 5040.305884599686 -22.880055338144302ZM5040.305884599686 188.12229003757238Q5129.177793778479 188.12229003757238 5189.233852941543 235.36259277164936Q5249.289912104607 282.60289550572634 5279.556818842888 364.1522224918008Q5309.823725581169 445.70154947787523 5309.823725581169 548.0619612634182Q5309.823725581169 651.5646028667688 5279.556818842888 733.1517358422279Q5249.289912104607 814.738868817687 5189.233852941543 862.0903076194227Q5129.177793778479 909.4417464211583 5040.305884599686 909.4417464211583Q4951.874003089964 909.4417464211583 4892.064621172845 862.1614225283265Q4832.255239255726 814.8810986354947 4801.988332517445 733.4717431664467Q4771.721425779164 652.0623876973987 4771.721425779164 548.0619612634182Q4771.721425779164 445.55931966006756 4801.988332517445 364.08110758289695Q4832.255239255726 282.60289550572634 4891.9935062639415 235.36259277164936Q4951.731773272157 188.12229003757238 5040.305884599686 188.12229003757238ZM5787.009479165077 0.0V1104.2218017578125H6036.899558916688V919.7157779932022H6046.961728513241Q6077.237284339964 1015.5686002597213 6149.270687252283 1066.9752213545144Q6221.304090164602 1118.3818424493074 6318.802005201578 1118.3818424493074Q6341.628604322672 1118.3818424493074 6367.25078978762 1116.4796533212066Q6392.872975252569 1114.5774641931057 6410.899479158223 1111.5553304031491V875.9221988916397Q6395.4153344631195 880.4243058264256 6359.773307282478 884.315417073667Q6324.131280101836 888.2065283209085 6289.2289827391505 888.2065283209085Q6219.677733555436 888.2065283209085 6164.11759358272 858.0309208184481Q6108.557453610003 827.8553133159876 6076.950692135841 773.2085001654923Q6045.343930661678 718.561687014997 6045.343930661678 644.3302994817495V0.0ZM6839.343930661678 642.0447200536728V0.0H6581.009479165077V1104.2218017578125H6827.890867508948L6830.628541663289 829.5554728209972H6803.837097980082Q6851.1795092746615 973.6491162106395 6942.755175370723 1046.762144368142Q7034.3308414667845 1119.8751725256443 7171.245981439948 1119.8751725256443Q7285.4725154563785 1119.8751725256443 7371.11917520687 1070.9552795402706Q7456.765834957361 1022.0353865548968 7504.516983233392 928.2265218086541Q7552.268131509423 834.4176570624113 7552.268131509423 699.3595979809761V0.0H7293.933680012822V659.4673030599952Q7293.933680012822 772.8058178722858 7236.217762857676 835.7683907076716Q7178.501845702529 898.7309635430574 7076.376781411469 898.7309635430574Q7008.123015135527 898.7309635430574 6954.444839272648 869.2796838395298Q6900.7666634097695 839.8284041360021 6870.055297035724 782.7191170267761Q6839.343930661678 725.6098299175501 6839.343930661678 642.0447200536728ZM7725.608771160245 0.0 8248.369675293565 1490.0H8586.24912841618L9117.080894365907 0.0H8824.542520344257L8560.92711018771 775.8356998711824Q8522.083044432104 896.9897558614612 8479.6431998685 1045.6307609081268Q8437.203355304897 1194.2717659547925 8385.27427815646 1387.1427018269897H8445.309118650854Q8394.277800291777 1193.2761962935328 8352.940088704228 1043.6396215856075Q8311.60237711668 894.0030468776822 8274.509409993887 775.8356998711824L8015.853889159858 0.0ZM8031.474256999791 366.20639730244875V581.7510115578771H8811.29540771246V366.20639730244875ZM9291.009479165077 -418.0V1104.2218017578125H9544.348361000419V927.4932845011353H9557.788374833763Q9580.721770830452 970.9375577792525 9620.20178995654 1015.3330383300781Q9659.681809082627 1059.7285188809037 9722.581836752594 1089.801845703274Q9785.48186442256 1119.8751725256443 9878.090834960341 1119.8751725256443Q10009.126782223582 1119.8751725256443 10112.769078772515 1053.0972501635551Q10216.411375321448 986.319327801466 10276.913538407534 858.952660728246Q10337.41570149362 731.585993655026 10337.41570149362 550.49755859375Q10337.41570149362 371.3734350576997 10278.122388098389 243.5778828933835Q10218.829074703157 115.78233072906733 10115.006785478443 47.575555827468634Q10011.184496253729 -20.63121907413006 9877.148678384721 -20.63121907413006Q9787.272994793952 -20.63121907413006 9724.541858319193 9.271031901240349Q9661.810721844435 39.173282876610756 9621.81516031921 83.66882202029228Q9581.819598793983 128.1643611639738 9558.597291663289 172.87087402492762H9549.343930661678V-418.0ZM9809.052657060325 192.6287841796875Q9894.484388016164 192.6287841796875 9953.353742264211 238.3335091136396Q10012.223096512258 284.0382340475917 10042.923350825906 365.07204223424196Q10073.623605139554 446.10585042089224 10073.623605139554 551.4931282550097Q10073.623605139554 656.8048372417688 10043.17224324122 736.7630765810609Q10012.720881342888 816.7213159203529 9953.851527094841 861.8193566910923Q9894.982172846794 906.9173974618316 9809.052657060325 906.9173974618316Q9724.123102210462 906.9173974618316 9664.438205156475 862.743791911751Q9604.753308102489 818.5701863616705 9573.59530069679 738.9675020352006Q9542.437293291092 659.3648177087307 9542.437293291092 551.4931282550097Q9542.437293291092 444.3236409500241 9573.844193112105 363.53648844361305Q9605.251092933118 282.749335937202 9665.18488240242 237.68906005844474Q9725.118671871722 192.6287841796875 9809.052657060325 192.6287841796875ZM10552.009479165077 -418.0V1104.2218017578125H10805.348361000419V927.4932845011353H10818.788374833763Q10841.721770830452 970.9375577792525 10881.20178995654 1015.3330383300781Q10920.681809082627 1059.7285188809037 10983.581836752594 1089.801845703274Q11046.48186442256 1119.8751725256443 11139.090834960341 1119.8751725256443Q11270.126782223582 1119.8751725256443 11373.769078772515 1053.0972501635551Q11477.411375321448 986.319327801466 11537.913538407534 858.952660728246Q11598.41570149362 731.585993655026 11598.41570149362 550.49755859375Q11598.41570149362 371.3734350576997 11539.122388098389 243.5778828933835Q11479.829074703157 115.78233072906733 11376.006785478443 47.575555827468634Q11272.184496253729 -20.63121907413006 11138.148678384721 -20.63121907413006Q11048.272994793952 -20.63121907413006 10985.541858319193 9.271031901240349Q10922.810721844435 39.173282876610756 10882.81516031921 83.66882202029228Q10842.819598793983 128.1643611639738 10819.597291663289 172.87087402492762H10810.343930661678V-418.0ZM11070.052657060325 192.6287841796875Q11155.484388016164 192.6287841796875 11214.353742264211 238.3335091136396Q11273.223096512258 284.0382340475917 11303.923350825906 365.07204223424196Q11334.623605139554 446.10585042089224 11334.623605139554 551.4931282550097Q11334.623605139554 656.8048372417688 11304.17224324122 736.7630765810609Q11273.720881342888 816.7213159203529 11214.851527094841 861.8193566910923Q11155.982172846794 906.9173974618316 11070.052657060325 906.9173974618316Q10985.123102210462 906.9173974618316 10925.438205156475 862.743791911751Q10865.753308102489 818.5701863616705 10834.59530069679 738.9675020352006Q10803.437293291092 659.3648177087307 10803.437293291092 551.4931282550097Q10803.437293291092 444.3236409500241 10834.844193112105 363.53648844361305Q10866.251092933118 282.749335937202 10926.18488240242 237.68906005844474Q10986.118671871722 192.6287841796875 11070.052657060325 192.6287841796875ZM12234.060979001224 -23.12005289644003Q12105.625984698534 -23.12005289644003 12005.810808103532 14.577609457075596Q11905.99563150853 52.27527181059122 11843.078072100878 124.84625366330147Q11780.160512693226 197.41723551601171 11763.009479165077 301.2393961623311L12007.699827469885 336.7678271532059Q12027.086449377239 255.36297119408846 12084.828965246677 214.54724772274494Q12142.571481116116 173.73152425140142 12237.056245930493 173.73152425140142Q12332.181486815214 173.73152425140142 12387.648642983288 211.68307332322001Q12443.115799151361 249.6346223950386 12443.115799151361 305.93736734986305Q12443.115799151361 354.38221272826195 12405.697854001075 385.34692545607686Q12368.279908850789 416.3116381838918 12293.586412757635 432.2050528973341L12105.542265623808 472.4362540692091Q11948.653669431806 506.09410156309605 11870.600484617054 583.8428861498833Q11792.547299802303 661.5916707366705 11792.547299802303 783.8847794607282Q11792.547299802303 885.951099447906 11848.584913734347 961.4620715342462Q11904.62252766639 1036.9730436205864 12004.806599117815 1078.5885689295828Q12104.990670569241 1120.2040942385793 12237.73669270426 1120.2040942385793Q12364.865050449967 1120.2040942385793 12457.620209548622 1082.7085498049855Q12550.375368647277 1045.2130053713918 12606.777353104204 977.4886206053197Q12663.17933756113 909.7642358392477 12681.050410151482 817.7466080710292L12448.066526688635 782.5603507459164Q12432.755426429212 843.4539469406009 12381.968559972942 885.2876656092703Q12331.181693516672 927.1213842779398 12241.754353836179 927.1213842779398Q12158.98034504801 927.1213842779398 12105.068847652525 890.7987524420023Q12051.157350257039 854.4761206060648 12051.157350257039 797.8400626629591Q12051.157350257039 749.443980306387 12087.875461421907 718.025979410857Q12124.593572586775 686.607978515327 12205.585042312741 668.8789493814111L12395.80640950054 629.0389477536082Q12554.326134435833 595.3588582351804 12630.781510412693 521.3277518711984Q12707.236886389554 447.29664550721645 12707.236886389554 329.5990030914545Q12707.236886389554 224.3193188458681 12646.852690018713 144.94397216662765Q12586.468493647873 65.56862548738718 12479.766686193645 21.224286295473576Q12373.064878739417 -23.12005289644003 12234.060979001224 -23.12005289644003Z"/>
</svg>
